<?xml version="1.0" encoding="UTF-8"?>
<svg version="1.1" viewBox="0 0 67 55" xmlns="http://www.w3.org/2000/svg">
<title>icon</title>
<desc>Created with Sketch.</desc>
<g fill="none" fill-rule="evenodd" opacity=".9">
<g transform="translate(-480 -1075)" fill="#123764" fill-rule="nonzero">
<g transform="translate(0 920)">
<g transform="translate(480 155)">
<path d="m1.9919 1.082c-0.99595 0.72131-1.4486 1.9836-1.0865 3.2459 0.27162 1.082 0.90541 2.0738 1.3581 2.8852 0.63378 1.082 1.5392 2.0738 2.8068 3.1557 1.4486 1.2623 2.9878 2.5246 4.4365 3.7869l1.9919 1.623c0.4527 0.36066 0.63378 0.72131 0.54324 1.3525-0.18108 1.2623-0.36216 2.6148-0.54324 3.877l-2.173 15.779c-0.18108 1.082-0.090541 1.9836 0.090541 2.7951 0.36216 1.3525 1.2676 2.3443 2.7162 3.0656 0.27162 0.090164 0.4527 0.18033 0.72432 0.27049 0.36216 0.18033 0.81486 0.27049 1.0865 0.27049 0.90541 0 1.6297-0.54098 2.0824-1.5328 0.27162-0.63115 0.54324-1.2623 0.72432-1.8934l4.0743-10.549c0.36216-1.082 0.99595-1.9836 1.6297-3.0656l0.27162-0.45082 1.9919 1.5328c2.173 1.623 4.3459 3.3361 6.4284 4.959-0.18108 0.72131-0.36216 1.4426-0.54324 2.1639l-0.18108 0.81148c-0.27162 1.082-0.27162 2.0738 0.090541 2.9754 0.4527 0.9918 1.177 1.8033 2.2635 2.1639 0.90541 0.36066 1.7203-0.18033 1.9919-0.36066 0.36216-0.18033 0.72432-0.54098 0.90541-0.81148 2.173-2.7049 4.2554-5.5 6.4284-8.2049l1.3581-1.7131c0.18108-0.18033 0.36216-0.45082 0.54324-0.72131 0.72432-0.9918 0.63378-1.8934-0.18108-2.7049-0.36216-0.36066-0.81486-0.81148-1.2676-1.2623-0.81486-0.72131-1.9014-0.81148-2.8973-0.36066-0.81486 0.36066-1.6297 0.81148-2.4446 1.1721l-0.90541 0.45082c-0.090541 0-0.18108 0.090164-0.27162 0.090164-0.63378-0.54098-1.177-1.1721-1.8108-1.7131l-5.9757-5.6803c0.18108-0.27049 0.36216-0.45082 0.54324-0.72131 0.81486-0.9918 1.8108-1.7131 3.0784-2.5246 3.1689-2.0738 6.2473-4.2377 9.3257-6.4016 0.27162-0.18033 0.63378-0.45082 0.99595-0.81148 0.90541-0.81148 0.99595-1.8033 0.4527-2.8852-0.63378-0.9918-1.4486-1.8934-2.3541-2.6148-0.54324-0.45082-1.4486-0.81148-2.7162-0.45082-0.63378 0.18033-1.2676 0.36066-1.7203 0.54098l-16.931 6.3115c-0.36216 0.090164-0.63378 0.18033-0.99595 0.27049-0.4527 0.090164-0.90541-0.090164-1.3581-0.45082-0.4527-0.45082-0.90541-0.81148-1.3581-1.2623-0.72432-0.63115-1.4486-1.2623-2.173-1.8934-1.6297-1.3525-2.8973-2.3443-4.0743-3.2459-1.2676-0.9918-2.8068-1.623-4.527-1.8934-0.90541 0-1.7203 0.18033-2.4446 0.63115zm2.173 1.2623c1.3581 0.18033 2.6257 0.72131 3.7122 1.5328 1.177 0.90164 2.4446 1.8934 3.9838 3.2459 0.72432 0.63115 1.4486 1.2623 2.0824 1.8934 0.4527 0.45082 0.90541 0.81148 1.3581 1.2623 0.81486 0.72131 1.8108 0.9918 2.8068 0.81148 0.4527-0.090164 0.81486-0.18033 1.2676-0.36066l16.931-6.3115c0.4527-0.18033 0.99595-0.36066 1.6297-0.54098s0.90541 0 1.0865 0.090164c0.81486 0.63115 1.4486 1.3525 1.9919 2.1639 0.18108 0.27049 0.18108 0.36066-0.090541 0.54098-0.27162 0.27049-0.54324 0.45082-0.81486 0.63115-3.0784 2.1639-6.2473 4.2377-9.3257 6.4016-1.2676 0.81148-2.4446 1.7131-3.4405 2.8852-0.27162 0.36066-0.54324 0.72131-0.72432 0.9918-0.09054 0.18033-0.18108 0.27049-0.27162 0.45082l-0.4527 0.63115 0.72432 0.72131 6.3378 5.9508c0.72432 0.63115 1.4486 1.3525 2.0824 1.9836 0.4527 0.36066 0.90541 0.45082 1.4486 0.18033 0.18108-0.090164 0.36216-0.18033 0.54324-0.27049l0.90541-0.45082c0.81486-0.36066 1.5392-0.81148 2.3541-1.1721 0.36216-0.18033 0.63378-0.090164 0.99595 0.090164 0.4527 0.36066 0.81486 0.72131 1.177 1.082 0.090541 0.090164 0.18108 0.18033 0.18108 0.18033s0 0.090164-0.09054 0.18033c-0.18108 0.18033-0.27162 0.36066-0.4527 0.63115l-1.2676 1.9836c-2.173 2.7049-4.2554 5.5-6.4284 8.2049-0.09054 0.18033-0.27162 0.27049-0.4527 0.36066-0.27162 0.18033-0.4527 0.18033-0.4527 0.18033-0.63378-0.18033-0.99595-0.54098-1.2676-1.082-0.18108-0.54098-0.27162-1.1721-0.09054-1.8934l0.18108-0.81148c0.18108-0.81148 0.4527-1.623 0.63378-2.4344 0.09054-0.27049 0.09054-0.90164-0.4527-1.3525-2.2635-1.7131-4.527-3.4262-6.7-5.1393l-2.6257-1.9836c-0.090541 0-0.090541-0.090164-0.18108-0.18033l-0.81486-0.54098-0.81486 1.2623-0.4527 0.81148c-0.63378 1.082-1.2676 2.1639-1.7203 3.3361l-3.9838 10.639c-0.18108 0.63115-0.4527 1.1721-0.72432 1.8033-0.18108 0.45082-0.36216 0.54098-0.90541 0.36066-0.18108-0.090164-0.4527-0.18033-0.63378-0.27049-0.99595-0.45082-1.5392-1.082-1.7203-1.8934-0.18108-0.54098-0.18108-1.1721-0.09054-2.0738l2.173-15.779c0.18108-1.2623 0.36216-2.6148 0.54324-3.877 0.18108-1.2623-0.27162-2.3443-1.2676-3.0656l-1.9014-1.623c-1.4486-1.2623-2.9878-2.5246-4.4365-3.7869-1.0865-0.90164-1.8108-1.8033-2.4446-2.7049-0.4527-0.81148-0.99595-1.5328-1.177-2.4344-0.18108-0.54098 0-1.082 0.36216-1.3525 0.36216-0.090164 0.72432-0.18033 1.177-0.090164z"/>
<path d="m65.642 53.738c0.27162 0 0.54324-0.090164 0.72432-0.36066 0.27162-0.36066 0.27162-0.9918-0.18108-1.2623l-22.364-17.131c-0.36216-0.27049-0.99595-0.18033-1.2676 0.18033-0.27162 0.36066-0.27162 0.9918 0.18108 1.2623l22.454 17.041c0.09054 0.18033 0.27162 0.27049 0.4527 0.27049z"/>
<path d="m39.566 39.402c-0.27162 0.36066-0.27162 0.9918 0.18108 1.2623l13.762 10.459c0.18108 0.090164 0.36216 0.18033 0.54324 0.18033 0.27162 0 0.54324-0.090164 0.72432-0.36066 0.27162-0.36066 0.27162-0.9918-0.18108-1.2623l-13.762-10.459c-0.36216-0.27049-0.90541-0.18033-1.2676 0.18033z"/>
<path d="m55.682 51.574c-0.27162 0.36066-0.27162 0.9918 0.18108 1.2623l2.2635 1.7131c0.18108 0.090164 0.36216 0.18033 0.54324 0.18033 0.27162 0 0.54324-0.090164 0.72432-0.36066 0.27162-0.36066 0.27162-0.9918-0.18108-1.2623l-2.2635-1.7131c-0.4527-0.27049-0.99595-0.18033-1.2676 0.18033z"/>
<path d="m61.568 44.631c0.27162 0 0.54324-0.090164 0.72432-0.36066 0.27162-0.36066 0.27162-0.9918-0.18108-1.2623l-2.2635-1.7131c-0.36216-0.27049-0.99595-0.18033-1.2676 0.18033-0.27162 0.36066-0.27162 0.9918 0.18108 1.2623l2.2635 1.7131c0.18108 0.18033 0.36216 0.18033 0.54324 0.18033z"/>
<path d="m57.041 41.205c0.27162 0 0.54324-0.090164 0.72432-0.36066 0.27162-0.36066 0.27162-0.9918-0.18108-1.2623l-10.774-8.1148c-0.36216-0.27049-0.99595-0.18033-1.2676 0.18033-0.27162 0.36066-0.27162 0.9918 0.18108 1.2623l10.774 8.1148c0.18108 0.090164 0.36216 0.18033 0.54324 0.18033z"/>
</g>
</g>
</g>
</g>
</svg>
