<svg xmlns="http://www.w3.org/2000/svg" width="17" height="7" viewBox="0 0 17 7">
    <path fill="#FFF" fill-rule="evenodd" d="M5.363 4.454a10.38 10.38 0 0 0 3.122.475 10.38 10.38 0 0 0 3.123-.475V2.372a.619.619 0 0 1 .09-.362.545.545 0 0 1 .283-.237c.672-.325 1.316-.796 1.935-1.415a.632.632 0 0 1 .464-.192c.18 0 .335.064.464.192l1.663 1.663a.632.632 0 0 1 .192.464.632.632 0 0 1-.192.464 11.194 11.194 0 0 1-3.756 2.49c-1.366.55-2.787.825-4.266.825-1.478 0-2.9-.275-4.265-.826A11.194 11.194 0 0 1 .464 2.95a.632.632 0 0 1-.192-.464c0-.18.064-.335.192-.464L2.127.358a.632.632 0 0 1 .464-.192c.18 0 .335.064.464.192.618.619 1.263 1.09 1.934 1.415.106.06.196.143.272.248.075.106.11.223.102.351v2.082z"/>
</svg>
