<?xml version="1.0" encoding="UTF-8"?>
<svg viewBox="0 0 23 20" xmlns="http://www.w3.org/2000/svg">
<g>
<path d="M21.873 9.023l-1.519-2.367L21.56 5.45a.432.432 0 0 0 0-.626.432.432 0 0 0-.625 0l-.983.983-.983-3.172C18.701 1.563 17.763.804 16.691.804H6.15c-1.116 0-2.054.76-2.278 1.787L2.844 5.807l-.983-.983a.432.432 0 0 0-.625 0 .432.432 0 0 0 0 .626l1.25 1.206L.968 9.068C.789 9.38.7 9.738.7 10.095v5.316c0 .625.491 1.116 1.116 1.116h.536v1.474c0 .76.581 1.34 1.34 1.34h1.52c.759 0 1.34-.58 1.34-1.34v-1.474h9.782v1.474c0 .76.58 1.34 1.34 1.34h1.519c.759 0 1.34-.58 1.34-1.34v-1.474h.536c.625 0 1.116-.49 1.116-1.116v-5.316a3.253 3.253 0 0 0-.312-1.072zM3.29 7.058h16.26l1.385 2.233H1.86l1.43-2.233zm1.43-4.244c.134-.67.76-1.117 1.43-1.117H16.69c.67 0 1.25.447 1.43 1.162l1.027 3.35H3.692L4.72 2.814zm.938 15.187c0 .269-.179.447-.447.447H3.692c-.268 0-.446-.178-.446-.447v-1.474h2.412v1.474zm13.937 0c0 .269-.18.447-.447.447h-1.519c-.268 0-.447-.178-.447-.447v-1.474h2.413v1.474zm1.429-2.412H1.816c-.134 0-.223-.089-.223-.223v-5.182h19.654v5.182c0 .134-.089.223-.223.223z"/>
<path d="M18.21 10.9c-1.117 0-2.01.893-2.01 2.01 0 1.116.893 2.01 2.01 2.01 1.117 0 2.01-.894 2.01-2.01 0-1.073-.893-2.01-2.01-2.01zm0 3.17a1.106 1.106 0 0 1-1.117-1.116c0-.625.491-1.117 1.117-1.117.625 0 1.117.492 1.117 1.117s-.492 1.117-1.117 1.117zM4.63 10.9c-1.116 0-2.01.893-2.01 2.01 0 1.116.894 2.01 2.01 2.01 1.117 0 2.01-.894 2.01-2.01.045-1.073-.893-2.01-2.01-2.01zm0 3.17a1.106 1.106 0 0 1-1.116-1.116c0-.625.491-1.117 1.117-1.117.625 0 1.116.492 1.116 1.117s-.491 1.117-1.116 1.117zM14.547 11.659H8.293c-.268 0-.446.178-.446.446s.178.447.446.447h6.254c.268 0 .447-.179.447-.447s-.179-.446-.447-.446zM13.475 13.311h-4.11c-.268 0-.446.179-.446.447s.178.447.446.447h4.11c.268 0 .447-.179.447-.447a.448.448 0 0 0-.447-.447z"/>
</g>
</svg>
