<?xml version="1.0" encoding="UTF-8"?>
<svg width="50px" height="50px" viewBox="0 0 50 50" version="1.1" xmlns="http://www.w3.org/2000/svg" xmlns:xlink="http://www.w3.org/1999/xlink">
    <!-- Generator: Sketch 53.1 (72631) - https://sketchapp.com -->
    <title>noun_Phone_373695</title>
    <desc>Created with Sketch.</desc>
    <g id="Page-1" stroke="none" stroke-width="1" fill="none" fill-rule="evenodd">
        <g id="HomeV2-1-Copy-3" transform="translate(-1384.000000, -1080.000000)" fill="#123764" fill-rule="nonzero" stroke="#FFFFFF" stroke-width="0.5">
            <g id="noun_Phone_373695" transform="translate(1384.500000, 1080.000000)">
                <path d="M44.715,43.45 C46.805,41.305 46.805,38.445 44.715,36.355 L38.995,30.635 C38.005,29.59 36.795,29.04 35.475,29.04 C34.21,29.04 33,29.59 31.955,30.635 L28.655,33.935 C28.38,33.77 28.105,33.66 27.83,33.495 C27.445,33.33 27.115,33.11 26.785,32.945 C23.705,31.02 20.9,28.435 18.26,25.19 C16.94,23.54 16.06,22.165 15.455,20.735 C16.28,19.965 17.105,19.14 17.875,18.37 C18.15,18.095 18.48,17.765 18.755,17.49 C19.8,16.445 20.405,15.18 20.405,13.915 C20.405,12.65 19.855,11.44 18.755,10.34 L15.95,7.48 C15.62,7.15 15.29,6.82 15.015,6.49 C14.41,5.83 13.75,5.17 13.09,4.565 C12.1,3.575 10.89,3.025 9.625,3.025 C8.36,3.025 7.15,3.575 6.105,4.565 L2.53,8.14 C1.21,9.46 0.44,11.055 0.275,12.925 C0.055,15.95 0.935,18.755 1.595,20.625 C3.245,25.135 5.775,29.37 9.515,33.88 C14.08,39.325 19.525,43.56 25.74,46.585 C28.105,47.74 31.295,49.06 34.87,49.28 C35.09,49.28 35.31,49.28 35.53,49.28 C37.895,49.28 39.93,48.4 41.47,46.695 C41.47,46.695 41.525,46.64 41.525,46.64 C42.075,45.98 42.68,45.375 43.34,44.77 C43.835,44.385 44.275,43.945 44.715,43.45 Z M41.47,42.845 C40.81,43.505 40.095,44.165 39.49,44.935 C38.445,46.09 37.18,46.585 35.585,46.585 C35.42,46.585 35.255,46.585 35.09,46.585 C32.01,46.31 29.15,45.155 26.95,44.11 C21.065,41.25 15.95,37.235 11.66,32.12 C8.14,27.885 5.775,23.925 4.18,19.69 C3.19,17.105 2.86,15.07 3.025,13.2 C3.135,11.99 3.63,11 4.455,10.12 L7.975,6.6 C8.47,6.105 9.02,5.83 9.57,5.83 C10.23,5.83 10.78,6.215 11.165,6.6 C11.825,7.205 12.375,7.81 13.035,8.47 C13.365,8.8 13.695,9.13 14.025,9.46 L16.83,12.265 C17.38,12.815 17.655,13.365 17.655,13.915 C17.655,14.465 17.38,15.015 16.83,15.565 C16.555,15.84 16.225,16.17 15.95,16.445 C15.07,17.325 14.245,18.15 13.365,18.975 C13.365,18.975 13.31,19.03 13.31,19.03 C12.43,19.91 12.595,20.79 12.76,21.34 C12.76,21.395 12.76,21.395 12.815,21.45 C13.53,23.21 14.575,24.915 16.17,26.895 C19.03,30.415 22.055,33.165 25.355,35.255 C25.795,35.53 26.235,35.75 26.62,35.97 C27.005,36.135 27.335,36.355 27.665,36.52 C27.72,36.52 27.72,36.575 27.775,36.575 C28.105,36.74 28.435,36.85 28.765,36.85 C29.59,36.85 30.14,36.3 30.305,36.135 L33.88,32.56 C34.21,32.23 34.815,31.79 35.475,31.79 C36.135,31.79 36.63,32.23 37.015,32.56 L42.735,38.28 C44.055,39.6 43.45,40.81 42.68,41.58 C42.35,42.02 41.91,42.405 41.47,42.845 Z M25.63,10.23 C25.74,9.46 26.455,8.965 27.225,9.13 C30.525,9.68 33.495,11.22 35.86,13.64 C38.225,16.06 39.765,19.03 40.37,22.275 C40.48,23.045 39.985,23.76 39.27,23.87 C39.215,23.87 39.105,23.87 39.05,23.87 C38.39,23.87 37.785,23.375 37.675,22.715 C37.235,20.02 35.915,17.49 33.935,15.565 C31.955,13.585 29.48,12.32 26.785,11.825 C25.96,11.715 25.465,11 25.63,10.23 Z M46.53,22.33 C45.705,17.49 43.395,13.09 39.93,9.57 C36.41,6.05 32.01,3.795 27.17,2.97 C26.4,2.86 25.905,2.145 26.07,1.375 C26.235,0.605 26.895,0.11 27.665,0.275 C33,1.155 37.95,3.685 41.855,7.59 C45.76,11.495 48.345,16.445 49.225,21.835 C49.335,22.605 48.84,23.32 48.125,23.43 C48.07,23.43 47.96,23.43 47.905,23.43 C47.245,23.485 46.64,22.99 46.53,22.33 Z" id="Shape"></path>
            </g>
        </g>
    </g>
</svg>