<svg xmlns="http://www.w3.org/2000/svg" xmlns:xlink="http://www.w3.org/1999/xlink" width="18" height="18" viewBox="0 0 18 18">
    <defs>
        <path id="a" d="M5.463 8H.031V.02h10.864V8H5.463z"/>
    </defs>
    <g fill="none" fill-rule="evenodd">
        <rect width="17" height="17" x=".5" y=".5" fill="#123764" stroke="#123764" rx="2"/>
        <g transform="translate(4 5)">
            <mask id="b" fill="#fff">
                <use xlink:href="#a"/>
            </mask>
            <path fill="#FFF" d="M.125 4.4A.424.424 0 0 1 0 4.12c0-.08.04-.199.125-.279l.587-.56c.168-.161.42-.161.587 0l.041.04 2.306 2.36c.084.08.209.08.293 0L9.553.119h.043a.423.423 0 0 1 .587 0l.586.56c.168.161.168.401 0 .561L4.066 7.881A.39.39 0 0 1 3.77 8a.388.388 0 0 1-.292-.119L.209 4.519.124 4.4z" mask="url(#b)"/>
        </g>
    </g>
</svg>
