<svg xmlns="http://www.w3.org/2000/svg" width="20" height="18" viewBox="0 0 20 18">
    <path fill="#000" fill-rule="nonzero" d="M18.215 5.815H13.33a.247.247 0 0 1-.247-.181L11.568.994a1.383 1.383 0 0 0-1.333-.971c-.625 0-1.151.378-1.349.97l-1.513 4.64a.267.267 0 0 1-.247.182h-4.87c-.626 0-1.152.378-1.35.97a1.397 1.397 0 0 0 .51 1.58l3.95 2.863c.098.065.13.18.098.296l-1.514 4.64a1.397 1.397 0 0 0 .51 1.58c.247.18.543.279.823.279.296 0 .576-.099.823-.28l3.948-2.863c.1-.065.214-.065.297 0l3.948 2.863c.51.362 1.152.362 1.662 0s.708-.987.51-1.58l-1.513-4.64a.265.265 0 0 1 .098-.295l3.95-2.863c.51-.362.707-.987.51-1.58a1.343 1.343 0 0 0-1.3-.97zm.148 1.628l-3.948 2.863a1.397 1.397 0 0 0-.51 1.58l1.513 4.64c.05.148-.033.246-.098.296-.05.05-.165.099-.297 0l-3.965-2.88a1.407 1.407 0 0 0-1.662 0l-3.949 2.863c-.131.1-.246.05-.296 0-.049-.049-.148-.131-.098-.296l1.513-4.64a1.405 1.405 0 0 0-.51-1.58L2.107 7.428c-.131-.099-.115-.23-.098-.296a.242.242 0 0 1 .247-.181h4.87c.608 0 1.151-.395 1.349-.971l1.514-4.64a.26.26 0 0 1 .246-.18c.066 0 .198.016.247.18l1.514 4.64c.197.576.724.97 1.35.97h4.87c.164 0 .23.116.246.182.017.082.033.214-.099.312z"/>
</svg>
