<svg xmlns="http://www.w3.org/2000/svg" width="19" height="18" viewBox="0 0 19 18">
    <path fill="#000" fill-rule="nonzero" d="M3.376 15.374c3.5 3.501 9.247 3.501 12.748 0 3.501-3.5 3.501-9.248 0-12.748-3.5-3.501-9.247-3.501-12.748 0-3.501 3.5-3.501 9.247 0 12.748zm8.738-14.158a8.144 8.144 0 0 1 3.99 2.708H13.23a18.24 18.24 0 0 0-1.117-2.708zM8.476.966a8.199 8.199 0 0 1 2.548 0c.552.986.985 1.972 1.307 2.958H7.169c.322-.986.755-1.972 1.307-2.957zm-5.08 2.958a8.144 8.144 0 0 1 3.99-2.708A18.24 18.24 0 0 0 6.27 3.924H3.396zM13.53 4.978h3.291a8.086 8.086 0 0 1 1.045 3.495h-3.874a15.691 15.691 0 0 0-.462-3.495zm-6.662 0h5.766c.288 1.165.426 2.33.427 3.495H6.44c.001-1.165.139-2.33.427-3.495zM1.635 8.473A8.086 8.086 0 0 1 2.68 4.978h3.29a15.684 15.684 0 0 0-.46 3.495H1.635zm12.34 1.054h3.89a8.083 8.083 0 0 1-1.045 3.495h-3.395a16.94 16.94 0 0 0 .55-3.495zm-7.5 0h6.55a17.15 17.15 0 0 1-.62 3.495h-5.31a17.15 17.15 0 0 1-.62-3.495zM2.68 13.022a8.083 8.083 0 0 1-1.045-3.495h3.89c.058 1.165.243 2.33.55 3.495H2.68zm10.434 1.054h2.99a8.142 8.142 0 0 1-4.1 2.74 21.85 21.85 0 0 0 1.11-2.74zm-5.617 2.74a8.141 8.141 0 0 1-4.1-2.74h2.989c.298.913.669 1.827 1.11 2.74zm2.253.317c-.361 0-.717-.024-1.066-.07a24.336 24.336 0 0 1-1.26-2.987h4.652c-.34.996-.764 1.992-1.26 2.987a8.17 8.17 0 0 1-1.066.07z"/>
</svg>
