<?xml version="1.0" encoding="UTF-8"?>
<svg version="1.1" viewBox="0 0 64 69" xmlns="http://www.w3.org/2000/svg">
<title>Group 5</title>
<desc>Created with Sketch.</desc>
<g fill="none" fill-rule="evenodd" opacity=".9">
<g transform="translate(-780 -1068)" fill="#123764" fill-rule="nonzero">
<g transform="translate(0 920)">
<g transform="translate(780 148)">
<path d="m10.306 36.946c0.17468 0.34937 0.43671 0.61139 0.61139 0.87342 0.52405 0.52405 1.0481 1.1354 1.6595 1.6595 0.17468 0.17468 0.26203 0.34937 0.17468 0.61139-0.087342 0.43671-0.26203 0.96076-0.34937 1.3975-0.34937 1.3975-0.61139 2.7076-0.96076 4.1051-0.087342 0.26203-0.087342 0.43671 0 0.69873 0.087342 0.34937 0.26203 0.61139 0.52405 0.78608 0.087342 0 0.087342 0.087342 0.17468 0.087342 0.26203 0.17468 0.43671 0.087342 0.61139-0.17468 0.087342-0.17468 0.26203-0.43671 0.34937-0.69873 0.43671-0.87342 0.87342-1.8342 1.3101-2.7076 0.17468-0.34937 0.34937-0.61139 0.52405-0.87342 0.087342-0.087342 0.17468-0.26203 0.26203-0.34937l0.087342 0.087342c0.78608 0.78608 1.6595 1.4848 2.4456 2.2709 0 0 0.087342 0.087342 0 0.087342-0.087342 0.26203-0.17468 0.61139-0.34937 0.87342-0.087342 0.26203-0.087342 0.43671 0 0.69873 0.087342 0.26203 0.26203 0.43671 0.43671 0.52405 0.087342 0.087342 0.26203 0 0.34937-0.087342 0.087342 0 0.17468-0.087342 0.17468-0.17468 0.78608-0.87342 1.5722-1.6595 2.3582-2.5329 0.087342-0.087342 0.17468-0.17468 0.26203-0.26203 0.17468-0.17468 0.17468-0.26203 0-0.43671-0.087342-0.087342-0.17468-0.26203-0.34937-0.34937-0.17468-0.17468-0.34937-0.17468-0.52405-0.087342-0.34937 0.087342-0.61139 0.26203-0.96076 0.34937-0.087342 0-0.17468 0.087342-0.17468 0.087342h-0.087342c-0.26203-0.26203-0.52405-0.52405-0.69873-0.87342-0.43671-0.52405-0.96076-1.0481-1.3975-1.6595l-0.087342-0.087342c0.087342-0.087342 0.17468-0.26203 0.34937-0.34937 0.26203-0.26203 0.61139-0.52405 0.96076-0.69873 0.96076-0.52405 1.8342-1.0481 2.7949-1.5722 0.087342-0.087342 0.17468-0.087342 0.26203-0.17468 0.17468-0.087342 0.17468-0.26203 0.087342-0.43671-0.17468-0.26203-0.34937-0.52405-0.52405-0.69873-0.17468-0.17468-0.34937-0.17468-0.52405-0.17468s-0.34937 0.087342-0.52405 0.087342c-1.6595 0.43671-3.319 0.87342-4.8911 1.3101-0.087342 0-0.17468 0.087342-0.34937 0.087342-0.26203 0-0.43671-0.087342-0.52405-0.26203-0.26203-0.34937-0.61139-0.69873-0.87342-0.96076-0.34937-0.34937-0.69873-0.69873-1.0481-1.0481-0.34937-0.26203-0.69873-0.52405-1.1354-0.61139-0.17468-0.087342-0.34937 0-0.52405 0.087342-0.17468 0.087342-0.34937 0.34937-0.26203 0.61139 0.087342 0.43671 0.17468 0.69873 0.34937 0.96076z"/>
<path d="m39.566 0.61139c-0.26203 0-0.43671 0-0.61139 0.17468l-24.194 16.77c-0.17468 0.17468-0.34937 0.34937-0.34937 0.52405 0 0.26203 0 0.43671 0.17468 0.61139l4.9785 7.162h-18.691c-0.52405 0-0.87342 0.34937-0.87342 0.87342v41.313c0 0.52405 0.34937 0.87342 0.87342 0.87342h29.434c0.52405 0 0.87342-0.34937 0.87342-0.87342v-25.416l7.0747 10.044c0.17468 0.17468 0.34937 0.34937 0.52405 0.34937h0.17468c0.17468 0 0.34937-0.087342 0.52405-0.17468l24.106-16.857c0.43671-0.26203 0.52405-0.78608 0.17468-1.2228l-23.67-33.801c-0.087342-0.26203-0.34937-0.34937-0.52405-0.34937zm-10.132 66.729h-27.687v-39.653h27.687v39.653zm9.7823-16.42-7.8608-11.18c0-0.087342-0.087342-0.087342-0.087342-0.087342v-12.839c0-0.52405-0.34937-0.87342-0.87342-0.87342h-8.6468l-5.2405-7.4241 22.709-15.896 22.709 32.404-22.709 15.896z"/>
<path d="m20.438 52.754h-9.6076c-0.52405 0-0.87342 0.34937-0.87342 0.87342s0.34937 0.87342 0.87342 0.87342h9.5203c0.52405 0 0.87342-0.34937 0.87342-0.87342s-0.34937-0.87342-0.78608-0.87342z"/>
<path d="m20.438 56.947h-9.6076c-0.52405 0-0.87342 0.34937-0.87342 0.87342 0 0.52405 0.34937 0.87342 0.87342 0.87342h9.5203c0.52405 0 0.87342-0.34937 0.87342-0.87342 0-0.52405-0.34937-0.87342-0.78608-0.87342z"/>
<path d="m36.422 20.787c-0.087342 0-0.087342 0 0 0-0.087342-0.17468-0.087342-0.34937 0-0.52405 0.087342-0.43671 0.26203-0.78608 0.43671-1.1354 0.43671-0.96076 0.96076-1.9215 1.3975-2.8823 0.087342-0.087342 0.087342-0.17468 0.087342-0.34937 0.087342-0.17468 0-0.34937-0.17468-0.43671-0.26203-0.17468-0.52405-0.26203-0.87342-0.26203-0.17468 0-0.34937 0.087342-0.52405 0.17468l-0.34937 0.34937c-1.1354 1.3101-2.1835 2.6203-3.319 3.9304-0.087342 0.087342-0.17468 0.17468-0.26203 0.26203-0.087342 0.17468-0.34937 0.17468-0.52405 0.17468-0.43671-0.087342-0.87342-0.17468-1.3101-0.26203-0.43671-0.087342-0.96076-0.17468-1.4848-0.26203-0.43671-0.087342-0.87342 0-1.2228 0.17468-0.17468 0.087342-0.34937 0.17468-0.43671 0.34937s-0.087342 0.52405 0.17468 0.69873c0.17468 0.17468 0.43671 0.34937 0.69873 0.43671 0.34937 0.17468 0.69873 0.26203 1.0481 0.34937 0.78608 0.17468 1.5722 0.26203 2.2709 0.43671 0.26203 0 0.43671 0.17468 0.52405 0.43671 0.17468 0.43671 0.34937 0.87342 0.52405 1.3101 0.52405 1.3101 1.0481 2.6203 1.5722 3.843 0.087342 0.17468 0.17468 0.43671 0.34937 0.61139 0.26203 0.26203 0.52405 0.34937 0.87342 0.26203h0.17468c0.26203 0 0.43671-0.17468 0.34937-0.52405 0-0.26203-0.087342-0.52405-0.087342-0.69873-0.17468-0.96076-0.34937-2.0089-0.43671-2.9696-0.087342-0.34937-0.087342-0.69873 0-1.0481v-0.43671h0.087342c1.1354 0.17468 2.1835 0.34937 3.319 0.43671 0.087342 0 0.087342 0 0.087342 0.087342 0.087342 0.34937 0.17468 0.61139 0.26203 0.96076 0.087342 0.26203 0.17468 0.43671 0.34937 0.61139 0.17468 0.17468 0.43671 0.17468 0.69873 0.17468 0.17468 0 0.17468-0.17468 0.26203-0.26203 0-0.087342 0.087342-0.17468 0.087342-0.26203 0.17468-1.1354 0.34937-2.2709 0.52405-3.4063 0-0.087342 0-0.17468 0.087342-0.34937 0-0.17468-0.087342-0.34937-0.26203-0.34937-0.17468-0.087342-0.34937-0.087342-0.43671-0.087342-0.17468 0-0.34937 0-0.52405 0.17468-0.17468 0.26203-0.34937 0.52405-0.61139 0.87342 0 0.087342-0.087342 0.087342-0.087342 0.17468h-0.087342c-0.34937-0.087342-0.69873-0.17468-1.1354-0.26203-0.78608-0.17468-1.3975-0.34937-2.0962-0.52405z"/>
<path d="m38.081 35.024c0.17468 0.26203 0.43671 0.34937 0.69873 0.34937 0.17468 0 0.34937-0.087342 0.52405-0.17468l7.7734-5.5025c0.43671-0.26203 0.52405-0.78608 0.17468-1.2228-0.26203-0.43671-0.78608-0.52405-1.2228-0.17468l-7.7734 5.5025c-0.34937 0.26203-0.52405 0.87342-0.17468 1.2228z"/>
<path d="m40.439 38.518c0.17468 0.26203 0.43671 0.34937 0.69873 0.34937 0.17468 0 0.34937-0.087342 0.52405-0.17468l7.7734-5.5025c0.43671-0.26203 0.52405-0.78608 0.17468-1.2228-0.26203-0.43671-0.78608-0.52405-1.2228-0.17468l-7.7734 5.5025c-0.34937 0.26203-0.43671 0.78608-0.17468 1.2228z"/>
</g>
</g>
</g>
</g>
</svg>
