<svg xmlns="http://www.w3.org/2000/svg" width="18" height="18" viewBox="0 0 18 18">
    <g fill="#F15626" fill-rule="nonzero">
        <path d="M15.28 1.787v-1.79h-1.794v1.79H4.514v-1.79H2.72v1.79H.024v1.8h17.952v-1.8zM.024 17.949h17.952V5.377H.024V17.95zM13.49 7.173h1.796v1.795H13.49V7.173zm0 3.59h1.796v1.795H13.49v-1.795zM9.9 7.173h1.795v1.795H9.9V7.173zm0 3.59h1.795v1.795H9.9v-1.795zm0 3.586h1.795v1.795H9.9v-1.795zm-3.586-3.586H8.11v1.795H6.314v-1.795zm0 3.586H8.11v1.795H6.314v-1.795zm-3.59-3.586h1.795v1.795H2.724v-1.795zm0 3.586h1.795v1.795H2.724v-1.795z"/>
    </g>
</svg>
