<?xml version="1.0" encoding="UTF-8"?>
<svg viewBox="0 0 28 25" xmlns="http://www.w3.org/2000/svg">
<path d="M10.547 1c-.929.25-1.877.503-2.812.753a.326.326 0 0 0-.207.42l3.63 8.479-5.06 1.565-3.443-1.75a.328.328 0 0 0-.395.087l-1.204 1.614a.322.322 0 0 0 .05.42c.961.816 1.916 1.68 2.762 2.377.842.693 1.988 1.34 3.009 1.095 1.802-.43 3.604-.866 5.406-1.3l1.065 8.967a.33.33 0 0 0 .395.264l2.743-.724a.32.32 0 0 0 .217-.205l3.462-10.2c1.26-.301 2.52-.613 3.779-.91.66-.175 1.48-.558 2.12-1.114.639-.554 1.118-1.337.869-2.2-.286-1.066-1.154-1.418-1.884-1.585a5.392 5.392 0 0 0-2.417.069c-1.253.38-2.507.768-3.759 1.154l-8.1-7.188c-.059-.073-.165-.064-.226-.088zm-.07.665l7.686 6.826-6.393 1.975-3.532-8.204 2.24-.597zM24.92 7.66c.71.152 1.24.48 1.401 1.134.034.7-.268 1.218-.67 1.574-.542.47-1.307.829-1.865.978-5.686 1.365-11.372 2.738-17.057 4.108-.952.105-1.773-.346-2.447-.949-.846-.734-1.696-1.467-2.545-2.2l.868-1.164 3.315 1.692c.072.036.16.043.237.02l16.642-5.135a5.426 5.426 0 0 1 2.121-.058zm-5.485 5.378L16.17 22.7l-2.23.597-1.035-8.684 6.53-1.575z" stroke="#000" stroke-width=".5"/>
</svg>
