<?xml version="1.0" encoding="UTF-8"?>
<svg viewBox="0 0 22 19" xmlns="http://www.w3.org/2000/svg">
<path d="M21.917 11.763c0-.06 0-.119-.03-.178l-2.377-5.57V.448A.46.46 0 0 0 19.059 0H3.775a.46.46 0 0 0-.451.447v5.569L.947 11.585c-.03.06-.03.119-.03.178v7.207h.902v-3.186h19.165V19h.903v-3.425h-.06c.03-.06.06-.149.06-.238v-3.574h.03zM3.955 6.85h2.407V8.01c0 .238.21.447.452.447h9.206a.46.46 0 0 0 .451-.447V6.879h2.407l1.895 4.467H2.06L3.955 6.85zM15.57 4.08v3.484h-3.701V4.08h3.7zm-4.604 3.484h-3.7V4.08h3.7v3.484zM4.226.894h14.351v5.062h-2.136V3.633a.46.46 0 0 0-.451-.446H6.814a.46.46 0 0 0-.452.446v2.323H4.226V.893zM1.82 12.21h19.165v2.68H1.819v-2.68z"/>
</svg>
