<?xml version="1.0" encoding="UTF-8"?>
<!DOCTYPE svg PUBLIC "-//W3C//DTD SVG 1.1//EN" "http://www.w3.org/Graphics/SVG/1.1/DTD/svg11.dtd">
<!-- Creator: CorelDRAW X7 -->
<svg xmlns="http://www.w3.org/2000/svg" xml:space="preserve" width="86.5272mm" height="14.9594mm" version="1.1" style="shape-rendering:geometricPrecision; text-rendering:geometricPrecision; image-rendering:optimizeQuality; fill-rule:evenodd; clip-rule:evenodd"
viewBox="0 0 7111 1229"
 xmlns:xlink="http://www.w3.org/1999/xlink">
 <defs>
  <style type="text/css">
   <![CDATA[
    .fil1 {fill:#7765A5;fill-rule:nonzero}
    .fil0 {fill:#F4834A;fill-rule:nonzero}
    .fil3 {fill:#FE5573;fill-rule:nonzero;fill-opacity:0.258824}
    .fil2 {fill:url(#id0);fill-rule:nonzero}
   ]]>
  </style>
  <linearGradient id="id0" gradientUnits="userSpaceOnUse" x1="521.606" y1="1237.59" x2="541.125" y2="-8.1691">
   <stop offset="0" style="stop-opacity:1; stop-color:#F4834A"/>
   <stop offset="1" style="stop-opacity:1; stop-color:#7765A5"/>
  </linearGradient>
 </defs>
 <g id="Layer_x0020_1">
  <metadata id="CorelCorpID_0Corel-Layer"/>
  <g id="_634942192">
   <g>
    <path class="fil0" d="M6531 356c4,-5 8,-9 12,-14 9,-11 19,-21 30,-31 32,-30 71,-54 116,-72 46,-18 99,-26 160,-26 43,1 88,7 135,18 46,11 89,28 126,52l1 1 -1 3c-135,16 -334,40 -579,69zm-375 45l2 -19 19 -166 152 0 -19 150 -2 17 -152 18zm-545 64l4 -27 30 -252 7 0 217 226 20 20c-90,11 -183,22 -278,33zm-322 -249l155 0 -29 243 -4 29 -158 18 4 -31 32 -259zm-661 0l150 0 -38 313 -5 37 -152 18 4 -39 41 -329zm-481 0c47,0 89,6 125,18 35,13 64,30 87,52 23,23 39,50 48,81 10,32 12,67 7,106 -4,31 -12,62 -25,93l-1 1c-6,14 -13,28 -22,41 -169,19 -338,38 -505,57l5 -45 50 -404 231 0zm-20 376c30,0 55,-7 74,-20 18,-12 32,-28 41,-45 9,-18 14,-34 16,-48 1,-9 1,-19 0,-32 -1,-13 -4,-26 -10,-39 -6,-13 -16,-24 -31,-33 -14,-9 -35,-14 -61,-14l-108 0 -28 231 107 0zm-565 -376l156 0 -52 424 -6 47 -158 17 6 -47 54 -441zm-792 566l29 -52 303 -544 8 0 154 496 15 46c-54,6 -107,12 -160,18l-12 -48 -76 -276 119 -75 -199 368 -28 51c-51,6 -103,11 -153,16zm-148 -368c-27,-18 -55,-33 -84,-45 -28,-12 -56,-19 -82,-20 -17,-1 -31,0 -44,3 -14,2 -25,6 -35,12 -10,6 -18,14 -24,23 -6,10 -10,21 -11,35 -2,18 3,34 15,49 12,15 29,28 50,41 21,12 43,24 67,34 28,12 55,28 81,47 25,18 45,43 60,73 10,22 15,49 15,82 0,11 -1,23 -3,35 0,5 -1,10 -2,14 -58,6 -114,12 -169,17 8,-11 13,-24 15,-40 0,-3 0,-6 0,-10 0,-11 -4,-22 -11,-33 -9,-13 -21,-25 -36,-36 -15,-11 -33,-21 -52,-30 -22,-10 -45,-22 -68,-35 -24,-13 -45,-29 -65,-47 -20,-18 -35,-40 -45,-66 -11,-26 -13,-57 -8,-93 5,-45 20,-82 43,-114 24,-31 54,-55 92,-71 38,-17 81,-24 129,-24 41,2 76,8 105,16 29,9 55,20 77,32 22,12 43,26 61,40l-71 111zm-1109 283c-3,24 1,48 12,70 10,22 27,40 48,54 21,13 46,20 75,20 28,0 55,-7 79,-20 25,-14 46,-32 63,-54 17,-22 27,-46 30,-70l59 -481 155 0 -59 484c-5,44 -19,84 -40,120 -6,10 -13,20 -20,29 -5,6 -9,12 -14,17 -201,18 -367,30 -485,36 -7,-9 -14,-17 -20,-26 -6,-9 -11,-18 -16,-27 -22,-43 -30,-93 -23,-149l59 -484 156 0 -59 481z"/>
    <path class="fil1" d="M2118 880l35 -50 16 -22c7,6 15,12 23,18 10,7 20,14 31,20 13,7 27,14 41,20 -50,5 -99,9 -146,14zm-217 19c-31,35 -67,63 -110,85 -50,24 -104,36 -161,36l0 0c-57,0 -107,-12 -151,-36 -24,-14 -45,-30 -63,-50 118,-5 284,-17 485,-35zm724 -69c-4,24 -13,47 -25,68 -14,26 -34,48 -58,67 -25,19 -54,33 -88,43 -34,10 -72,13 -115,10 -29,-2 -58,-7 -87,-14 -29,-8 -57,-18 -85,-32 -28,-13 -54,-30 -79,-51l30 -41c47,-5 96,-9 146,-14 7,2 13,5 20,7 21,7 40,11 58,13 18,0 36,-1 55,-5 19,-4 35,-12 49,-23 3,-4 7,-7 10,-11 55,-6 111,-11 169,-17zm332 -94l101 0 50 0 11 42c-66,7 -131,14 -196,21l28 -52 6 -11zm162 42l23 85 -253 0 34 -64c65,-7 130,-14 196,-21zm-311 234l-148 0 110 -197c50,-5 102,-10 153,-16l-115 213zm471 -251l78 251 -174 0 -64 -234c53,-5 106,-11 160,-17zm381 -41l-36 292 -155 0 33 -275 158 -17zm706 -79c-9,15 -21,30 -34,44 -24,25 -54,46 -90,61 -37,16 -80,24 -132,24l-107 0 -30 242 -151 0 39 -314c167,-19 336,-38 505,-57zm-101 94l144 277 -175 0 -132 -242 8 0c52,0 95,-8 132,-24 8,-3 16,-7 23,-11zm470 -136l-33 268 359 0 -18 145 -509 0 49 -396 152 -17zm676 -78l-60 491 -155 0 57 -473 158 -18zm820 522l-4 0 -514 -522 41 25 -54 466 -152 0 63 -514c95,-11 188,-22 278,-33l264 274 -31 -14 34 -291 152 -18 -77 627zm838 -89c-13,11 -34,22 -63,33 -29,11 -60,20 -94,27 -35,6 -67,9 -98,9 -13,0 -31,-1 -54,-5 -23,-3 -49,-9 -77,-18 -28,-8 -57,-21 -86,-37 -29,-16 -56,-37 -80,-63 -25,-26 -45,-58 -59,-95 -15,-38 -23,-82 -23,-133 0,-35 5,-72 14,-111 10,-39 25,-78 45,-115 11,-20 23,-39 37,-57 245,-29 444,-53 579,-69l-65 133c-27,-18 -59,-32 -96,-42 -36,-10 -70,-14 -102,-14 -40,1 -75,7 -104,19 -29,12 -53,27 -72,47 -20,19 -35,40 -46,63 -12,24 -20,47 -25,72 -5,25 -7,47 -7,69 0,37 6,67 20,92 13,24 30,44 51,60 21,15 43,27 66,35 23,8 44,13 64,16 21,3 37,4 48,4 16,1 32,0 46,-2 15,-3 28,-7 39,-12l11 -100 -132 0 18 -144 285 0 -40 338z"/>
   </g>
   <g>
    <path class="fil2" d="M922 0l-786 0c-75,0 -136,61 -136,136l0 562c0,1 0,2 0,3 1,127 156,188 244,98l315 -318 -211 -130 53 -53 253 84 102 -107c16,-17 43,-21 63,-8 27,18 29,55 7,76l-108 103 84 253 -53 52 -130 -210 -264 275c-149,154 -42,412 172,413 1,0 3,0 4,0l0 0c294,0 532,-237 532,-531l0 -557c0,-78 -63,-141 -141,-141z"/>
    <g>
     <path class="fil3" d="M467 895c-6,-4 -14,-6 -21,-7 -4,-1 -9,-2 -14,-3 -13,-3 -26,-6 -39,-9 -6,-1 -12,-3 -13,-9 -1,-3 1,-6 2,-9 0,-3 0,-7 -3,-8 -3,-9 -13,-14 -21,-18 -5,-2 -9,-3 -14,-5 -80,94 -73,221 -8,307 4,-4 10,-7 15,-10 6,-3 11,-6 15,-11 -1,-6 2,-12 6,-17 5,-4 11,-7 15,-11 13,-12 15,-31 22,-47 7,-15 20,-27 35,-33 7,-11 11,-26 11,-38 1,-7 0,-13 1,-20 2,-6 6,-12 12,-14 7,-2 12,-14 11,-21 0,-7 -6,-14 -12,-17zm-225 -94l-11 3c-1,0 -2,1 -3,1 0,0 0,0 0,0 0,0 -1,0 -1,0 -1,0 -1,0 -2,1 -12,2 -20,-3 -22,-4l0 0c-3,-1 -6,-3 -8,-5 -4,-4 -5,-9 -6,-14 0,-5 0,-10 0,-15 1,-5 -4,-8 -8,-9 -4,-1 -8,0 -12,0 -4,0 -9,-2 -10,-6 -1,-3 0,-5 0,-8 2,-6 3,-14 9,-18 3,-2 7,-5 6,-9 -1,-2 -3,-3 -5,-4 -2,0 -5,1 -7,2 -10,5 -16,18 -28,20 -10,1 -19,-7 -22,-16 -4,-10 -3,-20 -2,-30 0,-11 8,-20 18,-23 5,-1 10,-1 15,-1 5,-1 10,-4 15,-6 6,-2 14,-1 20,3 10,6 13,19 20,28 2,2 4,5 7,4 3,0 4,-3 4,-5 0,-3 0,-6 0,-8 0,-6 -1,-13 0,-19 1,-6 4,-13 8,-17 7,-8 19,-10 21,-20 2,-8 9,-14 15,-18 7,-5 14,-9 20,-15 5,-5 8,-11 11,-17 4,-8 12,-14 22,-16 6,-1 14,0 18,-5 3,-4 2,-10 0,-14 -3,-5 -7,-8 -10,-12 -4,-4 -7,-9 -6,-14 1,-5 5,-9 9,-11 5,-2 10,-2 15,-3 9,0 19,1 27,-2 9,-3 17,-10 16,-19 0,-9 -7,-15 -13,-21 -3,-3 -5,-6 -7,-10 0,0 0,0 0,0 -1,0 -1,-1 -1,-1 0,0 0,-1 0,-1 -5,-10 -3,-19 -3,-22 0,-3 0,-6 -2,-8 -4,-2 -8,0 -11,2 -3,3 -6,6 -9,6 -5,0 -8,-5 -9,-10 0,-5 1,-9 1,-14 -1,-9 -8,-14 -15,-19 -5,-4 -11,-6 -17,-3 -4,2 -6,6 -8,10 -4,7 -9,15 -9,24 -1,6 1,12 0,19 0,3 -1,7 -3,10 0,0 0,0 0,0 -3,4 -8,12 -8,16 0,5 -1,11 -3,16 -1,3 -2,5 -5,6 -3,2 -7,0 -9,-3 -2,-3 -2,-7 -2,-10 -4,-25 -21,-48 -43,-59 -9,-4 -11,-17 -8,-26 4,-9 12,-16 19,-22 15,-11 31,-21 46,-32 6,-4 12,-9 18,-13 5,-4 11,-8 13,-15 1,-3 1,-7 2,-10 1,-4 3,-8 6,-9 5,-3 11,1 16,6 6,6 10,14 14,22 0,0 0,0 0,0 7,11 1,19 -4,21 -7,4 -15,8 -22,12 -3,2 -6,5 -5,8 1,3 5,3 9,4 6,1 11,5 15,10 3,5 8,10 9,16 1,5 7,8 12,7 5,0 9,-5 11,-9 1,-5 1,-11 -1,-15 -2,-5 -2,-11 -6,-15 -2,-2 -1,-6 2,-7 2,0 5,1 6,3 1,0 2,1 2,2l15 -14 -6 -17c-3,-9 -5,-17 -8,-25 -2,-6 -5,-12 -11,-16 -12,-7 -22,-17 -28,-29 -3,-5 -6,-11 -9,-15 -4,-4 -12,-11 -17,-8 -9,6 -17,15 -20,26 -1,4 -2,9 -1,13 2,4 5,7 7,11 3,4 3,9 1,13 -1,3 -2,7 -5,9 -2,3 -6,5 -9,4 -5,-1 -7,-6 -9,-10 -2,-7 -2,-14 -1,-20 1,-11 2,-21 3,-31 0,-3 0,-7 2,-9 3,-3 8,-4 13,-5 4,-1 9,-3 9,-8 0,-2 -2,-4 -4,-6 -2,-1 -5,-1 -7,0 -8,1 -13,8 -18,14 -6,11 -7,24 -13,35 -2,5 -3,12 -3,18 0,6 0,12 -2,18 -2,5 -8,10 -14,9 -6,-1 -9,-6 -14,-9 -6,-6 -15,-6 -23,-10 -3,-1 -7,1 -10,2 -3,2 -7,4 -10,3 -3,-1 -5,-4 -7,-6 -6,-7 -16,-6 -24,-8 -2,0 -4,-1 -5,-2 -1,-1 -2,-3 -1,-4 0,-2 2,-3 4,-3 1,0 3,-1 4,-2 1,-1 2,-4 1,-5 -4,-5 -8,-10 -14,-13 0,0 0,0 0,0 -2,-1 -6,-3 -7,-5 0,0 0,0 0,0 -1,0 -1,0 -1,0l0 0c-2,-2 -4,-2 -6,-3 -4,0 -7,-1 -9,-3 -3,-3 -3,-6 -5,-9 -2,-4 -7,-7 -12,-8 -5,0 -10,-2 -15,0 -7,2 -14,4 -21,5 -3,1 -6,1 -9,0 -4,-1 -6,-4 -8,-6 -9,-7 -18,-14 -26,-21l0 278c1,1 1,2 2,3 1,4 0,8 -2,12l0 0 0 139c7,14 10,29 15,44 3,10 7,20 13,29 2,3 5,6 8,6 2,0 4,-1 5,-3 1,-2 0,-5 0,-7 0,-5 -3,-9 -6,-13 -6,-9 -15,-20 -16,-31 0,-3 0,-7 0,-10 0,-1 0,-2 0,-3 0,-1 1,-2 2,-2 1,0 4,1 3,2 1,14 9,25 17,36 5,6 13,12 15,20 3,14 8,27 16,38 9,12 20,21 34,24 12,3 25,6 37,8 13,2 24,11 29,22 3,8 4,16 9,21 6,6 16,6 25,7 4,0 8,2 11,5 9,-5 17,-12 25,-20z"/>
     <path class="fil3" d="M72 203c-3,3 -5,9 -4,14 1,6 4,10 9,13 1,1 3,2 5,3 1,1 2,4 1,6 -1,2 -4,1 -7,1 -2,-1 -4,-3 -7,-2 -2,0 -4,3 -4,6 0,2 0,5 1,8 2,5 4,10 9,12 8,2 15,-5 22,-4 4,1 7,4 10,7 2,2 5,5 8,7 4,1 9,0 10,-4 1,-3 -1,-6 0,-10 0,-4 5,-7 8,-10 9,-8 9,-22 10,-34 0,-2 0,-4 -1,-7 -1,-2 -3,-4 -5,-4 -4,-1 -7,4 -9,7 -3,3 -8,8 -12,7 -4,-1 -9,-9 -12,-12 -4,-4 -8,-7 -12,-9 -7,-3 -15,-1 -20,5z"/>
     <path class="fil3" d="M50 210c2,0 5,-2 6,-3 2,-2 3,-4 4,-6 4,-7 10,-12 16,-15 6,-2 12,-3 16,-7 4,-5 4,-14 -1,-18 -8,-7 -21,0 -27,5 -9,8 -16,18 -19,29 -1,3 -2,6 -1,9 1,3 3,5 6,6z"/>
     <path class="fil3" d="M127 715c-2,0 -5,1 -5,3 0,2 2,3 3,3 5,2 9,5 14,7 6,3 13,6 19,8 3,1 5,2 8,1 11,-4 -9,-14 -12,-15 -8,-4 -18,-6 -27,-7z"/>
     <path class="fil3" d="M187 740c-2,0 -5,0 -7,2 -1,2 0,4 1,6 1,1 3,2 5,3 4,1 8,1 12,0 4,0 10,-4 6,-8 -4,-4 -12,-3 -17,-3z"/>
     <path class="fil3" d="M569 321c4,-6 6,-15 3,-22 -3,-7 -11,-14 -8,-21 3,-5 9,-6 15,-8 12,-5 20,-19 17,-32 -6,-29 4,-61 24,-83 3,-3 6,-5 7,-9 2,-3 2,-8 0,-11 -3,-3 -8,-3 -12,-2 -5,1 -9,3 -13,3 -4,1 -9,-2 -9,-6 0,-5 4,-8 7,-10 4,-3 6,-9 3,-11 -18,-14 -41,-19 -62,-13 -13,5 -25,13 -38,13 -8,0 -15,-4 -22,-5 -8,0 -17,2 -20,9 -15,10 -30,24 -45,34 -10,7 -20,14 -23,25 -2,9 0,18 6,24 4,4 10,7 15,10 5,3 9,8 10,14 1,15 8,29 11,44 1,11 2,21 1,32 -1,4 -2,9 -3,13l105 34c5,-2 9,-5 14,-7 6,-4 13,-9 17,-15zm-149 74c0,3 1,5 2,6 2,2 7,3 10,2l-12 -8z"/>
     <path class="fil3" d="M1063 156c-3,-2 -7,-1 -9,1 -2,2 -3,4 -5,5 -3,1 -6,0 -8,-2 -2,-2 -2,-5 -4,-7 -2,-4 -5,-9 -10,-12 -4,-3 -10,-3 -14,0 -3,3 -4,8 -3,12 2,4 5,8 9,10 3,1 4,6 3,9 -1,3 -4,6 -8,7 -3,2 -6,3 -10,4 -9,3 -14,12 -22,16 -3,2 -5,5 -6,8 -1,3 0,6 2,9 2,2 4,3 6,5 1,2 2,5 1,7 -1,2 -3,3 -5,2 -2,0 -4,-1 -6,-1 -3,0 -5,2 -6,5 -2,2 -1,6 0,8 1,3 2,5 4,7 1,2 3,4 3,7 1,2 0,5 -2,6 -2,2 -5,2 -7,1 -3,-2 -5,-4 -7,-5 -3,-1 -6,-4 -8,-1 -4,4 -4,11 -2,16 2,6 5,11 7,17 2,5 3,13 -1,17 -4,3 -9,2 -13,-2 -3,-3 -4,-8 -6,-12 -2,-7 -4,-14 -6,-22 -1,-2 -2,-5 -3,-7 -2,-2 -4,-4 -7,-4 -5,0 -8,6 -8,11 0,14 12,27 9,41 0,3 -3,5 -6,4 -3,0 -6,-2 -8,-4 -2,-2 -4,-4 -7,-5 -3,-1 -6,-1 -8,1 -3,2 -1,6 -1,10 0,3 -3,5 -6,6 -3,1 -6,1 -8,3 -3,1 -5,3 -7,4 -4,2 -10,1 -10,-3 -1,-3 -3,-6 -6,-6 -4,0 -7,3 -9,6 -2,3 -3,7 -6,9 -1,3 -4,4 -6,4 -2,-1 -3,-1 -4,-1 -1,1 -2,2 -3,3l-7 6c1,1 2,3 2,5 0,2 -1,4 -3,5 -2,1 -6,1 -9,-1l-12 12c0,2 -1,3 -1,5 -1,4 -4,7 -9,7 0,0 -1,0 -2,0l-38 36c1,1 3,1 4,1 2,1 4,2 5,4 0,2 -3,3 -5,4 -4,1 -9,0 -13,2 -5,3 -8,10 -6,15 1,3 -1,6 -4,7 -3,1 -6,1 -8,2l42 126c4,-10 9,-18 17,-25 2,-2 4,-4 6,-6 1,-1 2,-2 4,-2 5,-3 10,1 15,4 7,4 13,9 20,14 3,2 6,4 8,7 2,2 3,6 2,10l0 0c-2,4 -7,6 -12,6 -5,0 -9,-2 -14,-3 -11,-3 -23,0 -31,8 -3,1 -6,4 -9,5l12 35c2,0 4,-1 7,-1 4,-1 9,-1 14,0 5,2 9,8 9,14 0,6 -3,11 -8,14 -4,2 -8,2 -13,2l13 38 -53 52 -60 -97c-4,-1 -7,-3 -11,-3 -2,0 -5,0 -7,-2 -3,-3 -2,-8 -2,-12 0,-8 -5,-15 -12,-18 -10,-4 -21,-1 -31,2 -10,3 -20,8 -30,9 -5,1 -9,1 -13,2 -5,2 -9,4 -10,8 -8,21 -28,35 -40,53 -9,11 -18,23 -22,37 -3,6 -3,14 -3,21 -1,5 -1,10 -1,14 -1,3 -1,6 -1,9 1,5 3,10 6,14 9,3 14,15 17,24 3,9 6,19 13,25 7,6 16,7 24,5 8,-1 16,-5 23,-9 17,-9 39,0 56,10 3,1 6,3 9,5 4,3 8,7 8,12 0,4 -3,7 -4,11 -3,6 0,14 6,18 17,11 23,37 16,56 -2,7 -7,14 -8,21 -2,8 -1,16 5,20 9,6 10,17 12,27 2,8 1,16 2,24 1,8 4,17 11,21 9,8 0,26 7,35 4,6 13,8 20,8 17,0 34,-8 45,-20 7,-6 14,-12 16,-20 2,-5 2,-11 5,-16 4,-4 9,-6 14,-10 4,-3 8,-9 5,-14 -5,-9 -2,-22 4,-30 5,-7 12,-11 18,-17 6,-6 11,-14 8,-22 -6,-16 -6,-35 -2,-52 4,-17 15,-33 31,-40 11,-4 19,-13 26,-24 6,-10 7,-24 0,-33 -4,-5 -12,-7 -18,-8 -7,-1 -13,-2 -19,-5 -5,-3 -9,-7 -11,-13 -1,-3 -6,-5 -8,-8 -3,-3 -6,-7 -8,-11 -3,-7 -7,-13 -11,-20 -7,-14 -14,-30 -21,-44 -2,-2 -3,-4 -3,-7 0,-2 2,-5 4,-6 3,0 5,2 7,4 16,20 30,41 40,64 3,8 5,17 10,24 5,7 13,13 22,12 7,0 13,-3 19,-7 9,-6 18,-11 27,-16 6,-4 11,-7 16,-12 4,-5 7,-12 7,-19 -1,-6 -6,-12 -13,-13 -9,0 -19,-2 -28,-5 -5,-2 -10,-5 -12,-10 -2,-6 -6,-11 -11,-15 -2,-1 -3,-2 -5,-3 -1,-2 -2,-4 -1,-5 0,-2 2,-3 3,-3 1,-1 3,-1 5,-1 2,0 5,1 8,2 5,3 8,9 13,13 4,4 10,6 16,6 3,-1 7,-2 10,-1 3,0 7,3 10,5 3,2 6,4 10,3 10,-3 22,2 33,3 3,0 6,0 9,2 2,1 4,4 4,7 -2,5 0,11 5,15 4,3 11,3 16,-1 3,-2 8,1 9,5 2,4 1,8 1,12 0,9 2,17 5,25 4,10 9,19 14,28 6,-33 10,-67 10,-102l0 -542zm-333 146c-1,0 -2,1 -3,1 -4,1 -7,5 -11,7 -18,6 -31,21 -42,37 -5,7 -8,16 -10,24l66 -69zm-175 306c2,3 4,6 7,8 8,6 19,7 29,3 17,-10 20,-35 37,-45 2,-2 6,-3 9,-4l-18 -29 -64 67zm348 8l0 0c-6,4 -14,-1 -18,-7 -3,-6 -3,-14 -4,-20 -3,-14 -19,-29 -12,-44 3,-5 9,-9 15,-8 6,2 11,8 9,14 -1,4 -5,8 -6,12 -2,7 1,14 6,19 4,5 10,9 13,15 3,6 3,15 -3,19zm40 -52l0 0c-2,3 -5,6 -9,7 -5,0 -9,-6 -8,-11 0,-1 0,-2 1,-3 1,-2 1,-3 2,-4 0,-1 1,-2 1,-3 1,-3 3,-5 5,-6 12,-5 11,14 8,20z"/>
     <path class="fil3" d="M558 480c-3,2 -5,4 -6,7l7 -6 -1 -1z"/>
     <path class="fil3" d="M853 299c2,1 5,1 7,0 4,-4 -2,-10 -3,-13 -2,-3 -2,-6 -3,-10 -2,-6 -9,-17 -17,-10 -2,1 -3,4 -4,7 0,2 1,5 2,7 4,8 10,15 18,19z"/>
     <path class="fil3" d="M855 245c4,-11 8,-16 17,-23 8,-5 16,-12 16,-21 1,-4 -2,-10 -6,-9 -2,0 -4,2 -6,3 -10,11 -20,21 -30,32 -5,5 -11,11 -9,18 3,11 15,8 18,0z"/>
     <path class="fil3" d="M894 954c-3,1 -5,4 -7,8 -1,3 -2,7 -4,9 -4,4 -12,4 -15,8 -4,4 -3,10 -4,15 -1,5 -3,8 -6,11 -6,6 -8,15 -1,21 6,5 14,6 20,2 7,-4 9,-12 10,-20 1,-8 1,-16 5,-23 2,-4 5,-7 8,-11 3,-4 5,-8 4,-13 -1,-4 -5,-8 -10,-7z"/>
    </g>
   </g>
  </g>
 </g>
</svg>
