<svg xmlns="http://www.w3.org/2000/svg" width="308" height="361" viewBox="0 0 308 361">
    <g fill="#F05B2C" fill-rule="evenodd" opacity=".08">
        <path d="M227 223.655c-19.552 19.259-45.598 29.867-73.336 29.867s-53.779-10.608-73.332-29.867C60.774 204.39 50.01 178.74 50.01 151.42c0-27.321 10.765-52.97 30.323-72.23 19.553-19.264 45.594-29.867 73.332-29.867 27.738 0 53.784 10.603 73.337 29.867 19.553 19.26 30.323 44.909 30.323 72.235 0 27.316-10.77 52.966-30.323 72.23m35.343-179.277C233.316 15.78 194.719.035 153.664.035c-41.055 0-79.652 15.746-108.68 44.343-59.925 59.02-59.925 155.063.047 214.135l101.874 99.15a10.504 10.504 0 0 0 7.357 2.984c2.679 0 5.357-1.008 7.4-3.02 0 0 100.612-99.091 100.682-99.156 59.926-59.03 59.926-155.072 0-214.093"/>
        <path d="M211.366 117.864c-1.631 2.427-3.996 4.084-6.37 5.705-5.825 3.983-12 7.408-18.114 10.93-1.005.585-1.543 1.207-1.711 2.404-.841 5.852-1.8 11.68-2.711 17.523-.024.157-.028.318-.056.612 1.397-.557 2.706-1.072 4.01-1.606 1.22-.502 2.38-.378 3.44.35 1.426.98 1.576 2.702.393 4.12-.85 1.013-2.005 1.593-3.183 2.137-1.72.791-3.45 1.574-5.18 2.343-.495.221-.869.456-.93 1.073-.401 4.144-.836 8.283-1.285 12.647 1.388-.635 2.604-1.206 3.833-1.75 1.505-.662 2.87-.156 3.786 1.387.8 1.349.543 2.808-.846 3.674a128.64 128.64 0 0 1-6.712 3.858c-.902.484-1.374 1.013-1.505 2.095-.463 3.752-1.047 7.496-1.66 11.225-.439 2.703-1.701 4.867-4.37 6.064-1.45.644-2.833 1.436-4.361 2.219-.183-3.274-.323-6.432-.533-9.586-.697-10.576-1.295-21.165-3.23-31.612-.599-3.228-1.515-6.368-3.179-9.25-2.169-3.757-4.66-4.692-8.76-3.112-4.36 1.676-8.348 4.084-12.42 6.33-3.992 2.206-7.955 4.462-11.961 6.644-.72.392-1.07.875-1.22 1.64-1.169 6.012-2.211 12.044-2.983 18.121-.117.963-.43 1.63-1.224 2.21-1.87 1.368-3.68 2.813-5.577 4.282-.42-.64-.449-1.363-.612-2.035a1963.547 1963.547 0 0 1-4.039-17.238c-.182-.801-.402-1.036-1.239-.741-1.276.465-2.599.806-4.202 1.289.598-.686 1.099-1.321 1.594-1.897-.757.11-1.57.189-2.477.318 1.271-1.078 2.267-1.994 3.342-2.818.706-.534.617-.843.023-1.423a2152.954 2152.954 0 0 1-12.663-12.55c-.49-.484-1.094-.898-1.416-1.589 2.267-.806 4.473-1.542 6.642-2.371.921-.355 1.66-.258 2.552.156 5.633 2.588 11.373 4.936 17.165 7.164.734.281 1.332.25 2.057-.147 4.006-2.178 8.058-4.277 12.078-6.437 4.095-2.196 8.293-4.24 12.05-6.98 3.544-2.578 4.063-5.151 1.992-8.96-1.59-2.923-3.8-5.363-6.254-7.578-7.951-7.177-16.735-13.31-25.452-19.526-2.6-1.85-5.236-3.65-7.956-5.543 1.491-.861 2.907-1.593 4.235-2.459 2.45-1.588 4.978-1.487 7.535-.414 3.534 1.478 7.063 2.983 10.531 4.595 1.005.465 1.707.354 2.604-.143a132.669 132.669 0 0 1 6.89-3.54c1.482-.696 2.87-.13 3.609 1.252.836 1.584.547 2.992-.828 3.895-1.121.737-2.262 1.441-3.543 2.26 3.987 1.953 7.778 3.794 11.55 5.664.566.28.964.092 1.417-.208a465.541 465.541 0 0 1 4.777-3.066c1.09-.69 2.207-1.349 3.53-1.515 1.846-.235 3.248.806 3.332 2.519.061 1.27-.453 2.306-1.533 3.057-1.155.796-2.29 1.62-3.51 2.486.261.134.402.217.551.281 5.502 2.348 11.027 4.655 16.496 7.072 1.122.493 1.95.378 2.982-.152 6.283-3.218 12.514-6.547 19.04-9.282 2.654-1.114 5.337-2.21 8.292-2.274 1.78-.037 3.23.658 4.062 1.837.57 1.326.397 2.9-.585 4.364m2.861-26.091c-16.15-15.908-37.657-24.67-60.561-24.67-22.91 0-44.417 8.762-60.562 24.67-16.15 15.902-25.04 37.086-25.04 59.651 0 22.56 8.895 43.744 25.04 59.652 16.145 15.902 37.652 24.66 60.562 24.66 22.904 0 44.416-8.758 60.561-24.66 16.145-15.908 25.04-37.091 25.04-59.652 0-22.565-8.895-43.749-25.04-59.651"/>
    </g>
</svg>
