<?xml version="1.0" encoding="UTF-8"?>
<svg width="50" height="50" preserveAspectRatio="xMidYMid" viewBox="0 0 100 100" xmlns="http://www.w3.org/2000/svg">
<g transform="rotate(0 50 50)">
<rect x="47" y="16" width="6" height="18" rx="11.75" ry="4" fill="#f15626">
<animate attributeName="opacity" begin="-1.1916666666666667s" dur="1.3s" keyTimes="0;1" repeatCount="indefinite" values="1;0"/>
</rect>
</g>
<g transform="rotate(30 50 50)">
<rect x="47" y="16" width="6" height="18" rx="11.75" ry="4" fill="#f15626">
<animate attributeName="opacity" begin="-1.0833333333333333s" dur="1.3s" keyTimes="0;1" repeatCount="indefinite" values="1;0"/>
</rect>
</g>
<g transform="rotate(60 50 50)">
<rect x="47" y="16" width="6" height="18" rx="11.75" ry="4" fill="#f15626">
<animate attributeName="opacity" begin="-0.9750000000000001s" dur="1.3s" keyTimes="0;1" repeatCount="indefinite" values="1;0"/>
</rect>
</g>
<g transform="rotate(90 50 50)">
<rect x="47" y="16" width="6" height="18" rx="11.75" ry="4" fill="#f15626">
<animate attributeName="opacity" begin="-0.8666666666666667s" dur="1.3s" keyTimes="0;1" repeatCount="indefinite" values="1;0"/>
</rect>
</g>
<g transform="rotate(120 50 50)">
<rect x="47" y="16" width="6" height="18" rx="11.75" ry="4" fill="#f15626">
<animate attributeName="opacity" begin="-0.7583333333333333s" dur="1.3s" keyTimes="0;1" repeatCount="indefinite" values="1;0"/>
</rect>
</g>
<g transform="rotate(150 50 50)">
<rect x="47" y="16" width="6" height="18" rx="11.75" ry="4" fill="#f15626">
<animate attributeName="opacity" begin="-0.65s" dur="1.3s" keyTimes="0;1" repeatCount="indefinite" values="1;0"/>
</rect>
</g>
<g transform="rotate(180 50 50)">
<rect x="47" y="16" width="6" height="18" rx="11.75" ry="4" fill="#f15626">
<animate attributeName="opacity" begin="-0.5416666666666666s" dur="1.3s" keyTimes="0;1" repeatCount="indefinite" values="1;0"/>
</rect>
</g>
<g transform="rotate(210 50 50)">
<rect x="47" y="16" width="6" height="18" rx="11.75" ry="4" fill="#f15626">
<animate attributeName="opacity" begin="-0.43333333333333335s" dur="1.3s" keyTimes="0;1" repeatCount="indefinite" values="1;0"/>
</rect>
</g>
<g transform="rotate(240 50 50)">
<rect x="47" y="16" width="6" height="18" rx="11.75" ry="4" fill="#f15626">
<animate attributeName="opacity" begin="-0.325s" dur="1.3s" keyTimes="0;1" repeatCount="indefinite" values="1;0"/>
</rect>
</g>
<g transform="rotate(270 50 50)">
<rect x="47" y="16" width="6" height="18" rx="11.75" ry="4" fill="#f15626">
<animate attributeName="opacity" begin="-0.21666666666666667s" dur="1.3s" keyTimes="0;1" repeatCount="indefinite" values="1;0"/>
</rect>
</g>
<g transform="rotate(300 50 50)">
<rect x="47" y="16" width="6" height="18" rx="11.75" ry="4" fill="#f15626">
<animate attributeName="opacity" begin="-0.10833333333333334s" dur="1.3s" keyTimes="0;1" repeatCount="indefinite" values="1;0"/>
</rect>
</g>
<g transform="rotate(330 50 50)">
<rect x="47" y="16" width="6" height="18" rx="11.75" ry="4" fill="#f15626">
<animate attributeName="opacity" begin="0s" dur="1.3s" keyTimes="0;1" repeatCount="indefinite" values="1;0"/>
</rect>
</g>
</svg>
