<?xml version="1.0" encoding="UTF-8"?>
<svg version="1.1" viewBox="0 0 58 57" xmlns="http://www.w3.org/2000/svg">
<title>Group 6</title>
<desc>Created with Sketch.</desc>
<g fill="none" fill-rule="evenodd">
<g transform="translate(-1078 -1074)" fill="#123764" fill-rule="nonzero" stroke="#fff" stroke-width="1.5">
<g transform="translate(0 920)">
<g transform="translate(1079 155)">
<path d="m54.444 30.404c1.1853-1.778 1.1853-4.0894 0-5.8082l-2.0744-3.0819c-0.1778-0.3556-0.23707-0.71121-0.23707-1.1261l0.23707-3.7338c0.11853-2.1336-1.0075-4.0894-2.9041-5.0377l-3.319-1.6595c-0.3556-0.1778-0.59267-0.41487-0.77047-0.77047l-1.6595-3.319c-0.94828-1.8966-2.9634-3.0226-5.0377-2.9041l-3.7338 0.23707c-0.3556 0-0.77047-0.059267-1.0668-0.29634l-3.0819-2.0151c-1.778-1.1853-4.0302-1.1853-5.8082 0l-3.0819 2.0744c-0.41487 0.1778-0.77047 0.23707-1.1853 0.23707l-3.7338-0.23707c-2.1336-0.11853-4.0894 1.0075-5.0377 2.9041l-1.6595 3.319c-0.1778 0.3556-0.41487 0.59267-0.77047 0.77047l-3.319 1.6595c-1.8966 0.94828-3.0226 2.9634-2.9041 5.0377l0.23707 3.7338c0 0.3556-0.059267 0.77047-0.29634 1.0668l-2.0151 3.0819c-1.1853 1.778-1.1853 4.0894 0 5.8082l2.0744 3.0819c0.1778 0.41487 0.23707 0.77047 0.23707 1.1853l-0.23707 3.7338c-0.11853 2.1336 1.0075 4.0894 2.9041 5.0377l3.319 1.6595c0.3556 0.1778 0.59267 0.47414 0.77047 0.77047l1.6595 3.319c0.94828 1.8966 2.9634 3.0226 5.0377 2.9041l3.7338-0.23707c0.3556 0 0.77047 0.059267 1.0668 0.29634l3.0819 2.0151c0.88901 0.59267 1.8966 0.88901 2.9041 0.88901s2.0151-0.29634 2.9041-0.88901l3.0819-2.0744c0.29634-0.1778 0.71121-0.29634 1.0668-0.29634l3.7338 0.23707c2.1336 0.11853 4.0894-1.0075 5.0377-2.9041l1.6595-3.319c0.1778-0.3556 0.41487-0.59267 0.77047-0.77047l3.319-1.6595c1.8966-0.94828 3.0226-2.9634 2.9041-5.0377l-0.11853-3.6746c0-0.3556 0.059267-0.77047 0.29634-1.0668l2.0151-3.1412zm-2.9634-1.9558-2.0151 3.0819c-0.65194 0.94828-0.94828 2.0744-0.88901 3.2004l0.23707 3.7338c0.059267 0.71121-0.3556 1.3631-0.94828 1.6595l-3.319 1.6595c-1.0075 0.53341-1.8373 1.3631-2.3707 2.3707l-1.6595 3.319c-0.29634 0.65194-0.94828 1.0075-1.6595 0.94828l-3.7338-0.1778c-1.1261-0.059267-2.2522 0.23707-3.2004 0.88901l-3.0819 2.0151c-0.59267 0.3556-1.3631 0.3556-1.8966 0l-3.0819-2.0151c-0.88901-0.59267-1.8966-0.88901-2.9041-0.88901h-0.29634l-3.7338 0.23707c-0.71121 0.059267-1.3631-0.3556-1.6595-0.94828l-1.6595-3.319c-0.53341-1.0075-1.3631-1.8373-2.3707-2.3707l-3.319-1.6595c-0.65194-0.29634-1.0075-0.94828-0.94828-1.6595l0.23707-3.7338c0.059267-1.1261-0.23707-2.2522-0.88901-3.2004l-2.0151-3.0819c-0.3556-0.59267-0.3556-1.3631 0-1.8966l2.0151-3.0819c0.65194-0.94828 0.94828-2.0744 0.88901-3.2004l-0.23707-3.7338c-0.059267-0.71121 0.3556-1.3631 0.94828-1.6595l3.319-1.6595c1.0075-0.53341 1.8373-1.3631 2.3707-2.3707l1.6595-3.319c0.29634-0.65194 0.94828-1.0075 1.6595-0.94828l3.7338 0.23707c1.1261 0.059267 2.2522-0.23707 3.2004-0.88901l3.0819-2.0151c0.59267-0.3556 1.3631-0.3556 1.8966 0l3.0819 2.0151c0.94828 0.65194 2.0744 0.94828 3.2004 0.88901l3.7338-0.23707c0.71121-0.059267 1.3631 0.3556 1.6595 0.94828l1.6595 3.319c0.53341 1.0075 1.3631 1.8373 2.3707 2.3707l3.319 1.6595c0.65194 0.29634 1.0075 0.94828 0.94828 1.6595l-0.23707 3.6153c-0.059267 1.1261 0.23707 2.2522 0.88901 3.2004l2.0151 3.0819c0.41487 0.65194 0.41487 1.3631 0 1.9558z"/>
<path d="m21.833 27c3.5721 0 6.5-2.9279 6.5-6.5s-2.9279-6.5-6.5-6.5c-3.5721 0-6.5 2.9279-6.5 6.5 0 3.6306 2.8694 6.5 6.5 6.5zm0-9.4279c1.6396 0 2.9865 1.3468 2.9865 2.9865 0 1.6396-1.3468 2.9279-2.9865 2.9279-1.6396 0-2.9865-1.3468-2.9865-2.9865s1.2883-2.9279 2.9865-2.9279z"/>
<path d="m34.833 29c-3.5721 0-6.5 2.9279-6.5 6.5s2.9279 6.5 6.5 6.5c3.5721 0 6.5-2.9279 6.5-6.5 0-3.6306-2.8694-6.5-6.5-6.5zm0 9.4279c-1.6396 0-2.9865-1.3468-2.9865-2.9865 0-1.6396 1.3468-2.9865 2.9865-2.9865 1.6396 0 2.9865 1.3468 2.9865 2.9865 0 1.6396-1.2883 2.9865-2.9865 2.9865z"/>
<path d="m40.854 15.531c-0.70728-0.70748-1.8271-0.70748-2.4755 0l-22.515 22.463c-0.70728 0.70748-0.70728 1.8277 0 2.4762 0.35364 0.35374 0.82516 0.53061 1.2377 0.53061 0.41258 0 0.8841-0.17687 1.2377-0.53061l22.456-22.463c0.70728-0.64853 0.70728-1.7687 0.05894-2.4762z"/>
</g>
</g>
</g>
</g>
</svg>
