<svg xmlns="http://www.w3.org/2000/svg" width="21" height="34"><path fill="#fff" fill-rule="evenodd" d="M3.2 12.79a22.489 22.489 0 0 0 2.041 6.532 22.489 22.489 0 0 0 3.891 5.63l4.054-1.978a1.34 1.34 0 0 1 .791-.167 1.18 1.18 0 0 1 .731.325c1.27 1 2.8 1.807 4.592 2.424a1.37 1.37 0 0 1 .815.72 1.37 1.37 0 0 1 .066 1.087l-1.66 4.818a1.37 1.37 0 0 1-.72.815 1.37 1.37 0 0 1-1.087.066 24.253 24.253 0 0 1-8.414-4.95 24.48 24.48 0 0 1-5.66-7.522A24.48 24.48 0 0 1 .198 11.5a24.253 24.253 0 0 1 1.28-9.68 1.37 1.37 0 0 1 .72-.814A1.37 1.37 0 0 1 3.286.939l4.818 1.66a1.37 1.37 0 0 1 .815.72 1.37 1.37 0 0 1 .066 1.086c-.617 1.792-.922 3.496-.916 5.11a1.845 1.845 0 0 1-.227.765c-.134.247-.33.425-.587.532L3.202 12.79z"/></svg>