<svg xmlns="http://www.w3.org/2000/svg" width="17" height="28"><path fill="#fff" fill-rule="evenodd" d="M3.277 9.907c.219 1.893.72 3.72 1.505 5.482a18.683 18.683 0 0 0 3.067 4.787l3.423-1.524c.205-.106.426-.145.662-.116a.982.982 0 0 1 .598.29c1.024.867 2.272 1.583 3.741 2.147.305.117.524.324.656.622.133.297.14.599.024.903l-1.518 3.953a1.138 1.138 0 0 1-.621.656c-.298.132-.6.14-.904.023a20.149 20.149 0 0 1-6.843-4.354 20.338 20.338 0 0 1-4.48-6.41A20.338 20.338 0 0 1 .821 8.749 20.149 20.149 0 0 1 2.165.75c.117-.304.324-.523.621-.656.298-.132.6-.14.904-.023l3.952 1.517c.305.117.524.325.656.622.133.298.14.6.024.904-.565 1.47-.868 2.875-.91 4.217a1.532 1.532 0 0 1-.21.628.96.96 0 0 1-.502.424L3.277 9.907z"/></svg>