<svg xmlns="http://www.w3.org/2000/svg" width="15" height="37" viewBox="0 0 15 37">
    <path fill="#F15626" fill-rule="evenodd" d="M4.501 11.904a22.489 22.489 0 0 0-.793 6.798c.081 2.319.503 4.56 1.265 6.725l4.508-.157c.277-.026.54.03.79.169.251.138.43.336.537.594.753 1.43 1.822 2.79 3.208 4.082.288.268.438.598.452.99a1.37 1.37 0 0 1-.382 1.02l-3.475 3.726a1.37 1.37 0 0 1-.99.452 1.37 1.37 0 0 1-1.019-.382 24.253 24.253 0 0 1-5.673-7.945 24.48 24.48 0 0 1-2.111-9.173 24.48 24.48 0 0 1 1.465-9.298A24.253 24.253 0 0 1 7.39 1.183a1.37 1.37 0 0 1 .99-.452 1.37 1.37 0 0 1 1.019.382l3.727 3.475c.287.268.438.598.451.99a1.37 1.37 0 0 1-.381 1.02c-1.292 1.385-2.264 2.817-2.916 4.295a1.845 1.845 0 0 1-.518.607 1.155 1.155 0 0 1-.752.247l-4.508.157z"/>
</svg>
