<svg xmlns="http://www.w3.org/2000/svg" width="17" height="18" viewBox="0 0 17 18">
    <path fill="#123764" fill-rule="nonzero" d="M15.32.86c-.687-.011-1.512.411-2.2 1.1-1.127 1.014-2.234 2.15-3.3 3.3L1.02 3.5.36 4.82l6.6 3.3-3.74 4.4c-.858-.282-2.2-.603-2.2.44 0 .206.051.418.22.66l2.64 2.64c.241.168.453.22.66.22 1.043 0 .722-1.343.44-2.2l4.4-3.74 3.3 6.6 1.32-.66-1.76-8.8c1.149-1.067 2.286-2.174 3.3-3.3.688-.689 1.11-1.514 1.1-2.2-.006-.37-.123-.722-.36-.961-.239-.237-.59-.353-.96-.36z"/>
</svg>
