<svg xmlns="http://www.w3.org/2000/svg" width="18" height="17" viewBox="0 0 18 17">
    <path fill="#123764" fill-rule="nonzero" d="M16.792 16.233c-.672.141-1.563-.116-2.37-.66-1.3-.78-2.603-1.685-3.869-2.61L2.25 16.37l-.9-1.17 5.85-4.499-4.511-3.605c-.788.44-2.045 1.012-2.244-.012-.039-.203-.029-.421.09-.69l2.088-3.095c.205-.212.404-.303.606-.342 1.024-.2.965 1.18.852 2.075l5.033 2.832 1.98-7.108 1.421.396-.048 8.974c1.331.827 2.658 1.697 3.869 2.61.807.544 1.38 1.274 1.5 1.95.064.363.017.73-.17 1.01-.19.279-.513.46-.874.537z"/>
</svg>
